<svg width="240" height="240" viewBox="0 0 240 240" xmlns="http://www.w3.org/2000/svg">
  <defs>
    <linearGradient id="bg" x1="0%" y1="0%" x2="100%" y2="100%">
      <stop offset="0%" style="stop-color:#3498db;stop-opacity:1" />
      <stop offset="100%" style="stop-color:#2c3e50;stop-opacity:1" />
    </linearGradient>
  </defs>
  
  <!-- Background circle -->
  <circle cx="120" cy="120" r="120" fill="url(#bg)"/>
  
  <!-- Person icon -->
  <g fill="white" fill-opacity="0.9">
    <!-- Head -->
    <circle cx="120" cy="90" r="35"/>
    
    <!-- Body -->
    <path d="M120 140 C85 140, 60 165, 60 200 L60 240 L180 240 L180 200 C180 165, 155 140, 120 140 Z"/>
  </g>
  
  <!-- Data science icons -->
  <g fill="white" fill-opacity="0.3" font-family="Arial" font-size="16">
    <!-- Chart icon -->
    <rect x="20" y="20" width="4" height="15"/>
    <rect x="26" y="15" width="4" height="20"/>
    <rect x="32" y="10" width="4" height="25"/>
    
    <!-- Code brackets -->
    <text x="190" y="30" font-size="20">&lt;/&gt;</text>
    
    <!-- Analytics symbol -->
    <circle cx="25" cy="215" r="3"/>
    <line x1="25" y1="215" x2="35" y2="205" stroke="white" stroke-width="2" stroke-opacity="0.3"/>
    <circle cx="35" cy="205" r="2"/>
    <line x1="35" y1="205" x2="45" y2="220" stroke="white" stroke-width="2" stroke-opacity="0.3"/>
    <circle cx="45" cy="220" r="3"/>
    
    <!-- ML/AI symbol -->
    <text x="200" y="220" font-size="18">AI</text>
  </g>
</svg>